# xmcd
#
# Track frame offsets:
#	150
#	18828
#	32959
#	48807
#	66174
#	82589
#	96298
#	113336
#	128412
#	142840
#	161044
#	174425
#	192231
#	207934
#	221866
#	236152
#	255147
#	273320
#
# Disc length: 3837 seconds
#
# Revision: 2
# Processed by: cddbd v1.5.2PL0 Copyright (c) Steve Scherf et al.
# Submitted via: EasyCDDAExtractor 11.5.0.1
#
DISCID=e60efb12
DTITLE=Various Artist - NCT 046
DYEAR=2003
DGENRE=Country
TTITLE0=Tim McGraw - She's My Kind Of Rain
TTITLE1=Rascal Flatts - Love You Out Loud
TTITLE2=Phil Vassar - This Is God
TTITLE3=George Strait - The Road Less Traveled
TTITLE4=Jack Ingram - A Little Bit
TTITLE5=John Michael Montgomery - Country Thang
TTITLE6=Jimmy Wayne - Stay Gone
TTITLE7=Pam Tillis - So Wrong
TTITLE8=Sammy Kershaw - I Want My Money Back
TTITLE9=Steve Holy - Rock A Bye Heart
TTITLE10=Tammy Cochran - Love Won't Let Me
TTITLE11=Willie Nelson ft. Jon Bon Jovi - Always On My Mind
TTITLE12=Amy Dalley - Love's Got An Attitude
TTITLE13=Anthony Smith - Half A Man
TTITLE14=Hal Ketchum - (She's Something) You're Everything
TTITLE15=Holly Lamar - Unkissed
TTITLE16=Lee Greenwood - Rocks That You Can't Move
TTITLE17=Ken Mellons - Mr. DJ
EXTD=
EXTT0=
EXTT1=
EXTT2=
EXTT3=
EXTT4=
EXTT5=
EXTT6=
EXTT7=
EXTT8=
EXTT9=
EXTT10=
EXTT11=
EXTT12=
EXTT13=
EXTT14=
EXTT15=
EXTT16=
EXTT17=
PLAYORDER=
